<svg version="1" xmlns="http://www.w3.org/2000/svg" width="266.667" height="266.667" viewBox="0 0 200.000000 200.000000"><path d="M0 1.1c0 .5.5.7 1 .4.5-.3 1-.8 1-1.1C2 .2 1.6 0 1 0 .5 0 0 .5 0 1.1zM198.5 1c.3.5.8 1 1.1 1 .2 0 .4-.5.4-1 0-.6-.5-1-1.1-1-.5 0-.7.4-.4 1zM61.7 7.7c-.4.3-.7 1.9-.7 3.5 0 2.8 0 2.8-6.5 2.8H48v3c0 2.3-.5 3-2 3.1-1.1.1-2.6.2-3.2.3-.7 0-1.4 1.6-1.6 3.3-.3 2.9-.7 3.3-3.2 3.3s-2.9.4-3.2 3.2c-.3 2.9-.7 3.3-3.5 3.6-2.9.3-3.3.7-3.3 3.3 0 2.6-.3 2.9-3 2.9h-3v26h-3.5c-3.3 0-3.5.2-3.5 3.5 0 3.2-.2 3.5-3 3.5H9v32.2c-.1 17.8-.1 39.5-.1 48.3-.1 8.8-.1 22.9 0 31.2L9 200h182v-7.8c.1-4.2.2-18.1.2-30.7.1-12.7.1-37.7 0-55.8L191 73h-3c-2.8 0-3-.3-3-3.5 0-3.3-.2-3.5-3.5-3.5H178V40h-3c-2.7 0-3-.3-3-2.9s-.4-3-3.2-3.3c-2.9-.3-3.3-.7-3.6-3.6-.3-2.8-.7-3.2-3.2-3.2s-2.9-.4-3.2-3.3c-.2-2-.9-3.3-1.8-3.3-.8-.1-2.3-.2-3.2-.3-1.3-.1-1.8-1-1.8-3.1v-3h-12.9l-.3-3.3-.3-3.2-38.1-.3c-20.9-.1-38.3.1-38.7.5zm77 9.5c-.3.8-.6.5-.6-.6-.1-1.1.2-1.7.5-1.3.3.3.4 1.2.1 1.9zm-74.1 2.3c-1.7 1.3-2.3 4.1-.7 3 .5-.3 1.2-.1 1.6.5.3.5-.3 1-1.4 1-1.2 0-2.1-.5-2.1-1.1 0-.8-.5-.8-1.5.1-2.5 2.1-1.7.1 1-2.4 1.3-1.3 2.2-2.6 1.8-3-.4-.4.1-.4 1.1 0 1.7.7 1.7.8.2 1.9zm10.1-.9c-.3.3-1.2.4-1.9.1-.8-.3-.5-.6.6-.6 1.1-.1 1.7.2 1.3.5zm39.5.1c-5.1.2-13.2.2-18 0-4.8-.1-.6-.3 9.3-.3s13.8.2 8.7.3zm13.5-.1c-.3.3-1.2.4-1.9.1-.8-.3-.5-.6.6-.6 1.1-.1 1.7.2 1.3.5zm-.4 2c.3.4.2 1.4-.3 2.3-.7 1.4-.3 1.7 2.2 1.9 1.6.1 4.3-.4 5.9-1.2 1.6-.8 2.9-1.1 2.9-.6 0 .8-3.8 2.3-8.5 3.3-1.4.3-1.2.5.8.6 3.6.1 6.4 2.6 4.1 3.5-2.3.9-.5 2.9 2.2 2.3 1.4-.2 2.4.1 2.4.7 0 .7.3.7.8-.1.4-.7.7.9.6 3.5l-.2 4.7h-3.8c-4.3 0-8.5-2.9-5.7-3.9 2.4-1 .9-3.1-2.3-3.1-2.6 0-2.9-.4-2.9-3s-.4-3-3-3.2c-2.9-.2-2.9-.2-.5.7 2.2.8 2.1.9-1 .5-1.9-.2-13.2-.5-25-.7l-21.5-.2v2.9c0 2.7-.3 3-3 3-2.8 0-3 .2-2.7 3.2.3 2.9 0 3.2-3 3.8-3.8.7-8.8-.8-8.7-2.7 0-1 .2-1 .6-.1 1.1 2.9 2.5 1.2 1.8-2.3-.4-2.4-.3-3.4.4-2.9.6.3 1.1.2 1.1-.2 0-.5 1.2-.9 2.8-.8 2.4 0 2.7-.3 2.4-2.8-.3-2.3 0-2.7 2.1-2.7 4.5 0 5.7-.9 5-4.1l-.5-2.9h26.9c14.8 0 27.3.3 27.6.6zm-76.3.8c0 .3-.4.8-1 1.1-.5.3-1 .1-1-.4 0-.6.5-1.1 1-1.1.6 0 1 .2 1 .4zm91.5.6c-.3.5-1.4 1-2.3.9-1.4 0-1.3-.2.3-.9 2.7-1.1 2.7-1.1 2 0zm-70 3c-.3.5-1.6 1-2.8.9-2-.1-2-.2.3-.9 1.4-.4 2.6-.8 2.8-.9.2-.1 0 .3-.3.9zm72.5-.6c0 1.1-1.9 1.5-2.5.6-.3-.5.1-1 .9-1 .9 0 1.6.2 1.6.4zm-101 4c0 .3-.4.8-1 1.1-.5.3-1 .1-1-.4 0-.6.5-1.1 1-1.1.6 0 1 .2 1 .4zm3.6 1.6c0 1.1-.4 2-.8 2s-.8-.9-.8-2 .4-2 .8-2 .8.9.8 2zM156 31.6c0 .4-.3.5-.6.1-.3-.3-1.8-.1-3.3.4-2.3.8-2.4.8-.8-.5.9-.7 1.7-1.9 1.7-2.5 0-.9.5-.8 1.5.3.8.8 1.5 1.8 1.5 2.2zm2-2.6c0 .5-.2 1-.4 1-.3 0-.8-.5-1.1-1-.3-.6-.1-1 .4-1 .6 0 1.1.4 1.1 1zm-78.7.7c-.7.2-1.9.2-2.5 0-.7-.3-.2-.5 1.2-.5s1.9.2 1.3.5zM45 31.6c0 .8-.5 1.2-1 .9-.6-.4-.8-1.1-.5-1.6.9-1.4 1.5-1.1 1.5.7zm78 2.4c0 .5-.4 1-1 1-.5 0-1-.5-1-1 0-.6.5-1 1-1 .6 0 1 .4 1 1zm-80.3 5.2c-.3.7-.5.2-.5-1.2s.2-1.9.5-1.3c.2.7.2 1.9 0 2.5zm29-2.6c-.3.3-1.2.4-1.9.1-.8-.3-.5-.6.6-.6 1.1-.1 1.7.2 1.3.5zm8.3.4c0 .5-.5 1-1.1 1-.5 0-.7-.5-.4-1 .3-.6.8-1 1.1-1 .2 0 .4.4.4 1zm51-.6c0 .2-.9.6-2 .9-1.1.3-1.8.1-1.4-.4.5-.9 3.4-1.3 3.4-.5zm-9 1.6c0 .5-.2 1-.4 1-.3 0-.8-.5-1.1-1-.3-.6-.1-1 .4-1 .6 0 1.1.4 1.1 1zm35.7 1.2c-.3.8-.6.5-.6-.6-.1-1.1.2-1.7.5-1.3.3.3.4 1.2.1 1.9zM34.8 64.5c.3 23.1-.2 32-1.6 29.8-.4-.6-1.6-1.2-2.7-1.4-1.9-.4-2-1.3-2.3-26.7L28 39.9l3.2.3 3.3.3.3 24zm11.9-20.8c-.3 1-.5.4-.5-1.2 0-1.7.2-2.4.5-1.8.2.7.2 2.1 0 3zm98.6-3.1c.6.6-1.6 3.4-2.6 3.4-.3 0-.3-.9 0-2 .5-2 1.5-2.5 2.6-1.4zm26.5 25.6l-.3 26.3-2.2.3c-1.3.2-2.3 1.1-2.4 2-.1 1.1-.4.7-.9-.8-1-3-1.3-52.4-.3-53.3.3-.4 1.9-.7 3.5-.7h2.8l-.2 26.2zM95.5 44.5c.6.2-1.9.3-5.5.4-3.7 0-5.7-.4-4.7-.8 1.7-.6 7.9-.4 10.2.4zM121 44c0 .5-1.9.9-4.2.9l-4.3-.2 4-.7c2.2-.4 4.1-.8 4.3-.9.1 0 .2.3.2.9zm32.7 1.2c-.3.8-.6.5-.6-.6-.1-1.1.2-1.7.5-1.3.3.3.4 1.2.1 1.9zM73 45c-.8.5-1.2 1-1 1.2 1.3.8 53-.4 52.5-1.2-.3-.6.4-1 1.7-1 1.7 0 1.9.3.9.9-.9.6-1 1.1-.2 1.5.6.4.8 1.8.5 3.3-.5 1.7-.3 2.4.4 1.9.6-.3 1.3-.2 1.7.4.6.9-.7 1.4-2.7 1.1-.5 0-.8.7-.8 1.6 0 1-.4 1.4-.8.8-.8-1.2-47.3-1.4-46.5-.3.2.5-.1.8-.6.8-.6 0-1.1-.5-1.1-1.1 0-.8-.4-.8-1.4.1-1.2.9-1.6.5-2.2-2.7-.4-2.1-1.1-4.3-1.6-5-1.1-1.4-.2-3.3 1.5-3.3.7 0 .6.4-.3 1zm85 2.8c0 .5-.7.9-1.5.9s-1.2-.4-.9-.9c.3-.4.9-.8 1.5-.8.5 0 .9.4.9.8zm-11.8 7.9c0 1.3.1 2.9.2 3.5.1 1.4-7.3 2.4-7.5 1.1 0-.5-.2-1.9-.4-3.3-.7-4.9.2-5.8 4-4.6 2.6.8 3.5 1.7 3.7 3.3zM61.7 54c.3 1.1.9 1.7 1.4 1.4.5-.3.9 0 .9.5 0 .6-.4 1.1-1 1.1-1.2 0-1.3 2.7-.1 3.2.4.1.5 1.2 0 2.3-.7 2-.8 2-.8-.1-.1-1.7-.7-2-3.8-1.9-2.1.2-4.7-.1-5.8-.6-1.1-.4-1.4-.8-.6-.8.9-.1 1.1-.9.7-2.9-.5-2-.4-2.3.4-1.2.8 1.3 1 1.3 1-.2s1.6-2.2 5.8-2.7c.8 0 1.6.8 1.9 1.9zm75.1.6c0 1.5-.4 2.2-1 1.6-.5-.5-.6-1.6-.2-2.5.9-2.3 1.2-2.1 1.2.9zm16.9 7.6c-.2 1.8-.4.6-.4-2.7 0-3.3.2-4.8.4-3.3s.2 4.2 0 6zm-44.9-3.5c-2.1.2-5.7.2-8 0-2.4-.2-.7-.4 3.7-.4s6.3.2 4.3.4zm28.9 4.5c-.3.7-.5.2-.5-1.2s.2-1.9.5-1.3c.2.7.2 1.9 0 2.5zM51 62c0 .5-.5 1-1.1 1-.5 0-.7-.5-.4-1 .3-.6.8-1 1.1-1 .2 0 .4.4.4 1zm7 .4c0 .2-.7.7-1.6 1-.8.3-1.2.2-.9-.4.6-1 2.5-1.4 2.5-.6zm3 .6c0 .5-.2 1-.4 1-.3 0-.8-.5-1.1-1-.3-.6-.1-1 .4-1 .6 0 1.1.4 1.1 1zm84.1 3.7c-.4 2.8-.6 3.2-.9 1.5-.3-2.2.3-5.2 1.1-5.2.1 0 .1 1.7-.2 3.7zm8.6 5.5c-.2 1.3-.4.3-.4-2.2s.2-3.5.4-2.3c.2 1.3.2 3.3 0 4.5zM47 71c0 2-.5 3-1.5 3-.8 0-1.5-.5-1.5-1.1 0-.5.5-.7 1-.4.6.4 1-.5 1-1.9s.2-2.6.5-2.6.5 1.3.5 3zm-25.2 29c-.2 19.1-.6 27.2-1.5 28.1-.9.9-1.1.7-.6-1 .5-1.9.2-2.2-1.8-1.9l-2.4.3-.3-26.3L15 73h7.2l-.4 27zm163-.8l-.3 26.3-2.4-.3c-1.9-.2-2.2.1-1.8 1.9.5 1.7.3 1.9-.6 1-.9-.9-1.3-8.9-1.5-28.1l-.3-27h7.1l-.2 26.2zM49.5 75c-.3.5-1.4 1-2.3.9-1.4 0-1.3-.2.3-.9 2.7-1.1 2.7-1.1 2 0zm1.8 2.7c-.7.2-1.9.2-2.5 0-.7-.3-.2-.5 1.2-.5s1.9.2 1.3.5zm119.4 19.5c-.3.7-.5.2-.5-1.2s.2-1.9.5-1.3c.2.7.2 1.9 0 2.5zM74 102c0 2.7-.3 3-3 3s-3-.3-3-3 .3-3 3-3 3 .3 3 3zm58 0c0 2.7-.3 3-3 3s-3-.3-3-3 .3-3 3-3 3 .3 3 3zm-102.3 6.2c-.2 1.3-.4.5-.4-1.7-.1-2.2.1-3.2.4-2.3.2 1 .2 2.8 0 4zm141 8.5c-.2 1.6-.4.3-.4-2.7s.2-4.3.4-2.8c.2 1.6.2 4 0 5.5zm-141 7.6c-.2 2.3-.3.1-.3-4.8 0-5 .1-6.8.3-4.2.2 2.6.2 6.7 0 9zm11.3-8.8c0 3.3.2 3.5 3.5 3.5 3.2 0 3.5.3 3.5 2.7 0 1.6-.5 3.5-1 4.3-.7 1.1-1 1.1-1 .2 0-1.5-3.1-1.2-4.2.3-.4.6-.8.1-.9-1-.1-1.1-.2-2.9-.3-4-.1-1.4-.8-2-2.6-2-3 0-4-1.1-4-4.8 0-2.4.3-2.7 3.5-2.7 3.3 0 3.5.2 3.5 3.5zm124.8.2c-.3 3.6-.4 3.8-3.5 3.5-3.2-.3-3.3-.2-3.3 3.3s-.1 3.6-3.2 3.3c-2.9-.3-3.3-.7-3.6-3.6-.3-3.1-.2-3.2 3.2-3.2 3.4 0 3.6-.2 3.6-3.5s.2-3.5 3.6-3.5c3.5 0 3.5.1 3.2 3.7zm4.9 16.5c-.2 2.4-.4.5-.4-4.2s.2-6.6.4-4.3c.2 2.4.2 6.2 0 8.5zm-149.1 4.3c-.5 2.1-1.2 2.6-3.4 2.3-2.3-.3-2.7-.8-3-4-.3-3.4-.1-3.7 2.5-4 3.3-.4 4.9 1.8 3.9 5.7zm162.9-2c0 3.4-.3 3.9-2.7 4.2-3 .4-4.4-2.1-3.4-6.1.4-1.6 1.2-2.1 3.3-2 2.6.1 2.8.4 2.8 3.9zm-24.8-.3c-.3.8-.6.5-.6-.6-.1-1.1.2-1.7.5-1.3.3.3.4 1.2.1 1.9zm-5 3c-.3.8-.6.5-.6-.6-.1-1.1.2-1.7.5-1.3.3.3.4 1.2.1 1.9zm16 .4c-.3.3-1.2.4-1.9.1-.8-.3-.5-.6.6-.6 1.1-.1 1.7.2 1.3.5zm-117.1 6c-.6 1.6-2.6 1.9-2.6.3 0-.5.5-.7 1-.4.6.4 1.1-.6 1.1-2.2.1-1.8.3-2.2.6-1 .3 1 .2 2.5-.1 3.3zm94.6-.2c.7-.4.8-.2.4.5-1.2 1.8-2.6.2-2.5-2.7l.2-2.7.4 2.8c.3 1.6.9 2.5 1.5 2.1zm-116.5-2.8c-.3.3-1.2.4-1.9.1-.8-.3-.5-.6.6-.6 1.1-.1 1.7.2 1.3.5zm139 0c-.3.3-1.2.4-1.9.1-.8-.3-.5-.6.6-.6 1.1-.1 1.7.2 1.3.5zM18 151.5c.6-.3.7.1.4.9-1.2 3.2-2.1 1.5-2.1-4.2 0-5.3 0-5.4.4-.9.2 2.6.8 4.5 1.3 4.2zm20.3-7.8c-1.8.2-4.8.2-6.5 0-1.8-.2-.4-.4 3.2-.4s5 .2 3.3.4zm115.6 1.1c1.2 1.2 1.1 1.3-.8.7-1.5-.4-2.1-.2-2.1.8 0 .8-.7 2-1.5 2.7-1 .9-1.5.9-1.5.1 0-.6.5-1.1 1-1.1.6 0 1-1.1 1-2.3 0-2.7 1.9-3.1 3.9-.9zm14.4-1.1c-1.8.2-4.8.2-6.5 0-1.8-.2-.4-.4 3.2-.4s5 .2 3.3.4zm-124.9 3.2c-.5 2.3-.2 3 1.2 3.4 1.6.4 1.5.5-.3.6-1.9.1-2.3-.4-2.3-2.7 0-2.5.7-4.2 1.6-4.2.2 0 .1 1.3-.2 2.9zm4.1-1.9c-.3.5-1.2 1-1.8 1-.7 0-.6-.4.3-1 1.9-1.2 2.3-1.2 1.5 0zm110.5 3.1c0 2.4-.4 2.9-2.2 2.8-1.9-.1-2-.2-.4-.6 1.4-.4 1.7-1.1 1.2-3.4-.3-1.9-.2-2.8.4-2.4.6.3 1 1.9 1 3.6zm-84-.2c0 2.5-.4 2.9-3.7 3.4-2.1.3-6.2.5-9 .4-2.9-.2-5.3.1-5.3.5s-.5.8-1.1.8c-.5 0-.7-.5-.4-1 .3-.6.2-1-.3-1s-.7-1.4-.4-3l.4-3H74v2.9zm72.2.1c.3 1.6.1 3-.4 3s-.6.4-.3 1c.3.5.1 1-.4 1-.6 0-1.1-.5-1.1-1.1 0-.6-.7-.8-1.5-.5-.9.3-4.9.3-9-.1-7.4-.6-7.5-.6-7.5-3.4V145h19.8l.4 3zm37.5.2c-.3.7-.5.2-.5-1.2s.2-1.9.5-1.3c.2.7.2 1.9 0 2.5zm-163 6c-.2 1.3-.4.3-.4-2.2s.2-3.5.4-2.3c.2 1.3.2 3.3 0 4.5zm159 0c-.2 1.3-.4.3-.4-2.2s.2-3.5.4-2.3c.2 1.3.2 3.3 0 4.5zm-126.9-2c-.3.7-1.5 1.4-2.9 1.5-1.5.1-1.7 0-.6-.3.9-.3 1.5-1 1.2-1.5-.4-.5.1-.9 1-.9s1.5.6 1.3 1.2zm34 2.5l.3 3.3h25.8l.3-3.3c.2-2.6.8-3.3 3-3.5 2.4-.3 2.7.1 3 3 .3 2.9.7 3.4 3.8 3.8 3.3.5 3.6.8 3.4 3.5-.2 4.7-.3 4.8-1.9 3.5-1.2-1-1.5-1-1.5.1 0 1.2-.2 1.2-.9.1-.4-.8-1.2-1.2-1.7-1-.5.1-1-.7-1.2-2-.2-1.2-.9-2.2-1.5-2.2-.7 0-.6-.4.3-1 1.2-.8.9-.9-1.2-.8-1.5.1-2.6.5-2.6.8 0 .3-.1.9-.2 1.5-.1.5-.3 1.7-.4 2.5-.2 2.2-27 2.2-27.2 0-.1-.8-.3-2-.4-2.5-.1-.6-.2-1.3-.1-1.8 0-.4-.2-.6-.6-.6-3.4.5-4.3-.3-4.3-3.7 0-3.3.2-3.5 2.8-3.2 2.2.2 2.8.8 3 3.5zm62.2-2.1c0 .8-.5 1.2-1 .9-.6-.4-.8-1.1-.5-1.6.9-1.4 1.5-1.1 1.5.7zm34.7-.1c0 .8-.4 1.5-.9 1.5-1 0-1.1-1.4-.1-2.3.9-1 1-.9 1 .8zM56 156.6c0 .2-1.9.3-4.2.3-3.9-.1-4.1-.2-1.3-.8 2.8-.7 5.5-.4 5.5.5zm91-.6c0 .5-.5 1-1.1 1-.5 0-.7-.5-.4-1 .3-.6.8-1 1.1-1 .2 0 .4.4.4 1zm-130.3 3.2c-.3.7-.5.2-.5-1.2s.2-1.9.5-1.3c.2.7.2 1.9 0 2.5zm134.6-2.5c-.7.2-1.9.2-2.5 0-.7-.3-.2-.5 1.2-.5s1.9.2 1.3.5zm32.4 2.5c-.3.7-.5.2-.5-1.2s.2-1.9.5-1.3c.2.7.2 1.9 0 2.5zM28 161.5c0 .5-.5.3-1-.5s-1-2-1-2.5c0-.6.5-.3 1 .5s1 1.9 1 2.5zm54-2.5c.9.6 1 1 .3 1-.6 0-1.3 1-1.5 2.2-.2 1.3-.9 2.2-1.6 2-.6-.1-1.2.3-1.2.9 0 .8-.5.8-1.5-.1-1.1-.9-1.5-.9-1.5-.1 0 .9-.3.9-1.3 0-1.4-1.4-1.7-4.9-.4-4.9.4 0 .5-.5.2-1-.8-1.3 6.5-1.3 8.5 0zm91.1 1.7c-1.2 2-1.4 1.4-.5-1.2.4-.9.9-1.4 1.1-1.1.3.2 0 1.3-.6 2.3zM18 161.9c0 .5.8 1.2 1.8 1.5 1 .3.7.4-.7.3-2.4-.2-4.4-2.7-2.2-2.7.6 0 1.1.4 1.1.9zm166 0c0 1.2-3.9 2.5-4.7 1.7-.4-.3.1-.6 1-.6 1 0 1.7-.5 1.7-1 0-.6.5-1 1-1 .6 0 1 .4 1 .9zm-126 1.7c0 .2-.7.4-1.5.4s-1.5-.4-1.5-1c0-.5.7-.7 1.5-.4.8.4 1.5.8 1.5 1zm4.4-.1c1.1.8 1.6 1.5 1 1.5-.5 0-1.8-.7-2.8-1.5-1.1-.8-1.6-1.5-1-1.5.5 0 1.8.7 2.8 1.5zm82.6-.1c0 .5-1.2.6-2.7.3-2.8-.5-7.3 1.7-6 2.9.3.4.1 1.2-.6 1.8-1.7 1.7-4.7 2.7-4.7 1.6 0-.5.9-1.2 2-1.5 1.1-.3 2-1.2 2-1.9 0-.8 1-2 2.2-2.8 2.4-1.6 7.8-1.9 7.8-.4zm-117.4 4.1c-.4 1.6-1.4 2.5-2.6 2.5-2.3 0-3.8-3.9-1.9-5.1 2.3-1.4 3.4-1 1.4.4-2 1.6-1.2 3.9 1 3 .8-.3 1.5-1.7 1.6-3.2 0-1.4.3-2 .6-1.3s.2 2.4-.1 3.7zm147.9 1.6c1.9.7 1.9.8-.1.8-2.3.1-3.5-1.7-3.3-5.2.1-1.7.3-1.5.8.7.3 1.6 1.5 3.3 2.6 3.7zm2.5-2.6c0 .8-.2 1.5-.4 1.5s-.6-.7-1-1.5c-.3-.8-.1-1.5.4-1.5.6 0 1 .7 1 1.5zm-114.3 2.7c-.3.8-.6.5-.6-.6-.1-1.1.2-1.7.5-1.3.3.3.4 1.2.1 1.9zm3.7-.6c2.3.9 2 2.3-.4 1.7-1.1-.3-2-.9-2-1.4 0-1.1.3-1.1 2.4-.3zm2.5 6.4c.1-1.1.3-1.2.9-.3.4.6 3 1.4 5.7 1.6 4.1.3 3.7.4-1.7.4-6.7 0-6.8 0-6.7-2.6l.1-2.6.8 2.5c.4 1.4.9 1.8.9 1zm61.7 1.8c-.4.3-1.2 0-1.9-.8-.9-1-.9-1.1.1-.6.8.5 1.2-.1 1.3-1.6l.2-2.3.4 2.3c.3 1.3.2 2.6-.1 3zm-5.3-.1c-1.3.2-3.5.2-5 0-1.6-.2-.5-.4 2.2-.4 2.8 0 4 .2 2.8.4zm-16.5 3c-1 .2-2.8.2-4 0-1.3-.2-.5-.4 1.7-.4 2.2-.1 3.2.1 2.3.4zm-13.2 3.1c-4.4.2-8.3-.1-8.7-.5-.4-.4 3.1-.6 7.9-.3l8.7.5-7.9.3zM0 199c0 .5.5 1 1 1 .6 0 1-.5 1-1 0-.6-.4-1-1-1-.5 0-1 .4-1 1zM198.5 199c-.3.5-.1 1 .4 1 .6 0 1.1-.5 1.1-1 0-.6-.2-1-.4-1-.3 0-.8.4-1.1 1z"/></svg>